<svg width="320" height="240.00000000000003" xmlns="http://www.w3.org/2000/svg">
 <g id="Layer_1">
  <title>Layer 1</title>
  <g stroke="none" opacity="0.95" id="svg_104">
   <path stroke="none" id="svg_5" fill="#2f2e41" d="m268.15243,36.48409l-24.78834,0.25852c-1.16511,-6.14044 -5.07986,-22.25194 -1.55429,-26.64653a6.03377,6.45919 0 0 1 6.35572,-5.77987l0,0c3.84204,-6.43812 10.2415,-5.47147 14.56675,-1.45059c4.35295,1.6079 5.99407,4.46443 5.42018,8.34087c3.22369,3.02076 3.81843,6.69593 2.37133,10.8794l-2.37134,14.39818z"/>
   <path stroke="none" id="svg_6" fill="#ffb9b9" d="m265.76614,52.83101l-17.88408,-2.65085l-3.57682,-5.59624c4.92716,-3.49872 6.67066,-8.3855 4.40224,-15.0215l12.38129,-0.29454c-0.58014,5.90945 1.24538,10.48498 6.32821,13.25426l-1.65084,10.30887z"/>
   <path stroke="none" id="svg_7" fill="#e6e6e6" d="m243.65383,225.51433l-0.68384,10.00785a2.97605,3.18589 0 0 0 3.14815,3.4125l4.80187,-0.31137a1.51797,1.62499 0 0 0 1.38061,-2.01606l-2.66544,-11.41316l-5.98135,0.32024z"/>
   <path stroke="none" id="svg_8" fill="#e6e6e6" d="m259.19962,225.1941l-2.66544,11.41316a1.51797,1.62499 0 0 0 1.38061,2.01606l4.80188,0.31135a2.97605,3.18589 0 0 0 3.14815,-3.4125l-0.68384,-10.00785l-5.98136,-0.32021z"/>
   <polygon stroke="none" id="svg_9" fill="#639dea" points="265.49109400111047,226.9036471738218 259.0108939512429,226.20753883227735 252.55962048091897,152.38533036482295 250.1214329414397,225.96966592083845 243.75476971628086,225.72561287077406 233.02447042105268,123.81482261134352 274.02018829841836,123.81482261134352 265.49109400111047,226.9036471738218 "/>
   <circle stroke="none" id="svg_10" fill="#ffb9b9" r="6.86588" cy="21.02078" cx="255.58597"/>
   <path stroke="none" id="svg_11" fill="#639dea" d="m280.07341,126.17126l-50.07543,0.58908c7.43146,-30.2854 11.87682,-58.41795 4.1271,-77.75832l12.38129,-6.47986c5.96995,6.6659 12.61861,5.97867 19.81006,-0.58908l11.83101,3.23993c-2.02634,25.36192 -1.11813,52.52471 1.92598,80.99825z"/>
   <path stroke="none" id="svg_12" fill="#ffb9b9" d="m216.24099,94.95011l31.0908,13.25426l6.95112,2.1886a2.40457,2.57411 0 0 0 3.01128,-1.84521l0,0a2.40457,2.57411 0 0 0 -1.36899,-2.98263l-7.21772,-2.36792l-21.73604,-13.5488l4.53981,-12.81245l-9.49233,-5.44896l-5.77793,23.56311z"/>
   <path stroke="none" id="svg_13" fill="#639dea" d="m216.51613,70.7979c5.91534,2.47044 10.62019,6.68664 14.30727,12.37064l11.55587,-17.96688l-8.25419,-16.19967l-17.60894,21.7959z"/>
   <path stroke="none" id="svg_14" fill="#2f2e41" d="m269.54033,18.87268c-5.02519,-1.38608 -9.96584,-1.57638 -14.76861,0.18173c-3.05938,1.58622 -6.73344,1.44007 -10.81939,0.13313l0,-13.22379l22.05862,0.62971l3.52938,12.27923z"/>
   <path stroke="none" id="svg_15" fill="#3f3d56" d="m247.22858,79.50717a3.67114,3.92998 0 0 0 -3.66703,3.92559l1.44745,32.43591a3.67114,3.92998 0 0 0 3.66703,3.92558l16.54882,0a3.67114,3.92998 0 0 0 3.66703,-3.92558l1.44745,-32.43591a3.67114,3.92998 0 0 0 -3.66703,-3.92559l-19.44371,0z"/>
   <path stroke="none" id="svg_16" fill="#ffb9b9" d="m294.1824,92.49975l-27.09983,11.55155l-2.04452,0.8716c-0.06514,0.02712 -0.13027,0.05036 -0.19902,0.0736l-6.85004,2.15768c-0.87571,0.27504 -2.08794,-0.98781 -2.79719,-1.8594a2.20195,2.35721 0 0 1 -0.0579,-3.07189a2.44117,2.61329 0 0 1 0.31122,-0.32152a2.02232,2.1649 0 0 1 0.90465,-0.42611l6.84281,-1.44104a2.29276,2.45441 0 0 0 0.69839,-0.27891l3.19162,-1.99111l16.56965,-10.32744a2.25022,2.40888 0 0 0 0.97341,-2.93631l-3.16267,-8.92901a2.24757,2.40605 0 0 1 1.03854,-2.97505l5.23976,-3.00604a2.24567,2.40401 0 0 1 3.23504,1.51077l4.54858,18.54755a2.25055,2.40923 0 0 1 -1.34251,2.85109z"/>
   <path stroke="none" id="svg_17" fill="#639dea" d="m295.75637,67.55797c-5.91534,2.47044 -10.62019,6.68663 -14.30727,12.37064l-11.55587,-17.96688l8.25419,-16.78873l17.60894,22.38496z"/>
   <path stroke="none" id="svg_18" fill="#fff" d="m263.82581,32.81776c-5.41644,2.41187 -11.09589,2.31393 -17.0075,0c1.72017,-3.14317 -0.8511,-5.60489 -2.17117,-8.77784l22.07357,-0.70223c-1.68801,2.75642 -4.17878,6.01308 -2.89489,9.48007z"/>
   <polygon stroke="none" id="svg_19" fill="#fff" points="266.4869376613351,23.862184305144183 266.23078356758924,23.58830740428857 266.59258122258325,23.200940685037494 268.7543506761576,20.500142073642564 269.02936859252077,20.75193200179683 266.85818261411623,23.463565363799717 266.4869376613351,23.862184305144183 "/>
   <rect stroke="none" transform="matrix(0.231658 -0.29759 0.27799 0.247992 -107.638 123.272)" id="svg_20" fill="#fff" height="7.81025" width="1.00054" y="577.67898" x="819.96482"/>
   <rect stroke="none" id="svg_21" fill="#fff" transform="matrix(0.19432 -0.326782 0.305259 0.208021 25.5215 349.039)" height="1.0002" width="19.55761" y="115.57933" x="1042.13259"/>
   <rect stroke="none" transform="matrix(0.305289 -0.207973 0.194275 0.326814 -37.8882 53.342)" id="svg_22" fill="#fff" height="19.55761" width="1.0002" y="358.28528" x="692.82026"/>
   <path stroke="none" id="svg_23" fill="#fff" d="m267.80629,97.21623l0,7.0179l-2.28218,0.97291c-0.0727,0.03027 -0.14541,0.05621 -0.22215,0.08216l-7.64626,2.40846c-0.97749,0.30699 -2.33065,-1.10262 -3.12232,-2.07553a2.4579,2.6312 0 0 1 -0.06464,-3.42895a2.72488,2.91701 0 0 1 0.34739,-0.3589a2.25742,2.41659 0 0 1 1.00981,-0.47566l7.63818,-1.60853a2.55909,2.73952 0 0 0 0.77957,-0.31134l3.56261,-2.22252z"/>
   <path stroke="none" id="svg_24" fill="#3f3d56" d="m271.11362,72.18418l-1.30766,0c0,-19.79899 -3.80805,-33.59664 -7.51904,-33.59664l-0.32692,-1.39986c3.32804,0 5.44981,5.74246 6.64366,10.55995c1.61861,6.53091 2.50996,15.20929 2.50996,24.43654z"/>
   <path stroke="none" id="svg_25" fill="#3f3d56" d="m241.03744,67.28469l-1.30764,0c0,-18.13273 3.83439,-29.39706 9.48054,-29.39706l-0.32692,1.39986c-3.90544,0 -7.84598,8.657 -7.84598,27.9972z"/>
   <circle stroke="none" id="svg_26" fill="#3f3d56" r="1.81287" cy="72.53414" cx="270.45979"/>
   <path stroke="none" id="svg_27" fill="#3f3d56" d="m235.8068,75.68383l-1.30766,0c0,-5.01724 2.63975,-9.09909 5.88447,-9.09909l0,1.39986c-2.52369,0 -4.57681,3.45385 -4.57681,7.69923z"/>
   <path stroke="none" id="svg_28" fill="#3f3d56" d="m246.26808,75.68383l-1.30766,0c0,-4.24537 -2.05311,-7.69923 -4.57683,-7.69923l0,-1.39986c3.24475,0 5.88449,4.08184 5.88449,9.09909z"/>
   <circle stroke="none" id="svg_29" fill="#3f3d56" r="0.72514" cy="76.03379" cx="245.61425"/>
   <circle stroke="none" id="svg_30" fill="#3f3d56" r="0.72514" cy="76.03379" cx="235.15297"/>
   <path stroke="none" id="svg_31" fill="#2f2e41" d="m77.56492,28.99005l-22.96595,4.16335a2.32467,2.48857 0 0 1 -2.63076,-1.78683c-1.65926,-6.41086 -5.12831,-14.77405 -1.76022,-18.97236a6.44311,6.8974 0 0 1 6.78688,-6.17198l0,0c4.10269,-6.87489 10.93629,-5.84267 15.55497,-1.549c4.64826,1.71698 6.40072,4.76731 5.7879,8.90673c2.00806,1.88165 3.06086,4.00109 3.28284,6.32735a8.536,9.13785 0 0 1 -2.33537,7.10864l-1.72029,1.97409z"/>
   <path stroke="none" id="svg_32" fill="#9f616a" d="m73.99431,48.3453l-17.80376,-1.12112c1.74481,-4.28704 2.44178,-8.41526 1.74547,-12.33233l13.26555,0c-0.03006,3.00753 1.36801,8.21001 2.79275,13.45345z"/>
   <path stroke="none" id="svg_33" fill="#e6e6e6" d="m52.56352,224.4566l-0.73024,10.68678a3.17795,3.40202 0 0 0 3.36173,3.64401l5.12765,-0.33247a1.62095,1.73524 0 0 0 1.47427,-2.15283l-2.84627,-12.18745l-6.38714,0.34196z"/>
   <path stroke="none" id="svg_34" fill="#e6e6e6" d="m69.16397,224.11462l-2.84627,12.18745a1.62095,1.73524 0 0 0 1.47427,2.15283l5.12765,0.33247a3.17795,3.40202 0 0 0 3.36173,-3.64401l-0.73024,-10.68678l-6.38714,-0.34196z"/>
   <polygon stroke="none" id="svg_35" fill="#639dea" points="75.88201950240727,225.940232230314 68.96252010543867,225.19686767725943 62.07340131023011,146.36628111026766 59.469824513562344,224.9427484923126 52.67150517448772,224.68202779565217 41.21317157022986,115.85771465729522 84.99006851874583,115.85771465729522 75.88201950240727,225.940232230314 "/>
   <circle stroke="none" id="svg_36" fill="#9f616a" r="7.33167" cy="25.27498" cx="64.91875"/>
   <path stroke="none" id="svg_37" fill="#2f2e41" d="m79.81978,18.51369c-5.36611,-1.00042 -10.64193,-1.13778 -15.77053,0.13117c-3.26693,1.14488 -7.19025,1.03939 -11.55339,0.09607l0,-9.54448l23.5551,0.4545l3.76882,8.86274z"/>
   <path stroke="none" id="svg_38" fill="#fff" d="m73.71759,36.63132c-5.7839,2.57549 -11.84865,2.47091 -18.16132,0c1.83687,-3.35641 -0.90886,-5.98513 -2.31845,-9.37333l23.57107,-0.74987c-1.80254,2.94342 -4.46228,6.42099 -3.0913,10.1232z"/>
   <rect stroke="none" transform="matrix(0.231656 -0.297592 0.277992 0.247989 -21.0774 8.51088)" id="svg_39" fill="#fff" height="8.33965" width="1.00054" y="182.11156" x="94.25589"/>
   <rect stroke="none" id="svg_40" fill="#fff" transform="matrix(0.19432 -0.326782 0.305259 0.208021 -65.2745 179.113)" height="1.0002" width="20.88467" y="124.83202" x="516.39606"/>
   <rect stroke="none" id="svg_41" fill="#fff" transform="matrix(0.305288 -0.20797 0.194273 0.326813 -83.9505 96.4277)" height="20.88467" width="1.0002" y="56.01003" x="408.79845"/>
   <path stroke="none" id="svg_42" fill="#639dea" d="m39.78316,89.82679l-10.12371,-6.72673l8.63374,-27.06939a11.92895,12.77003 0 0 1 5.21433,-6.63024l2.90841,-1.80254l0.25289,27.30796l-6.88566,14.92094z"/>
   <path stroke="none" id="svg_43" fill="#639dea" d="m83.54233,102.9737l-1.49779,-13.7334c-0.07997,-7.2489 1.072,-14.25722 3.81894,-20.71481l1.39636,-20.18019l-15.3601,-6.72673c-0.04711,0.33508 -0.08715,0.66994 -0.13208,1.00497l-7.19888,3.85323l-7.02075,-1.70811l0.03887,-2.40266l-13.96373,6.72673c4.61781,22.98223 2.09916,46.84828 -5.84182,75.03817l18.39593,5.38479l0.15295,-9.45602l16.39476,-1.25361c0.16887,3.06789 0.30457,6.08131 0.38333,9.02793c9.25108,3.64598 9.56884,3.58555 17.99774,-1.63481c-3.35669,-7.55499 -6.01449,-15.41665 -7.56375,-23.2255z"/>
   <polygon stroke="none" id="svg_44" fill="#639dea" points="107.15813738974248,86.46326645246972 97.73266532234811,83.10008495298916 82.65607821153753,64.31118380580756 87.25965872027336,48.345478447306505 108.20533342189628,79.73687224068726 107.15813738974248,86.46326645246972 "/>
   <path stroke="none" id="svg_45" fill="#e6e6e6" d="m77.61871,101.00935a2.62193,2.8068 0 0 0 3.13195,2.11468l8.00102,-1.9397l-1.15637,-5.46711l-8.00119,1.93933a2.61868,2.80331 0 0 0 -1.9754,3.35278l-0.00001,0.00001z"/>
   <path stroke="none" id="svg_46" fill="#639dea" d="m84.8162,94.68497l4.53821,8.96897c7.6332,-2.27906 14.24856,-9.46394 20.59651,-17.93794l-1.74547,-5.97931l-10.82189,2.98966l-12.56736,11.95862z"/>
   <polygon stroke="none" id="svg_47" fill="#e6e6e6" points="25.644774907883402,66.55138261588036 34.35697599235027,68.21668807608603 54.270575723546244,98.52770077958667 43.691510125304376,95.86294517363513 25.644774907883402,66.55138261588036 "/>
   <path stroke="none" id="svg_48" fill="#3f3d56" d="m24.09953,66.18032a0.74101,0.79326 0 0 0 -0.60801,1.22897l18.61393,30.23323a0.7386,0.79068 0 0 0 0.4483,0.3352l8.66051,2.18131a0.73975,0.7919 0 0 0 0.77455,-1.22643l-20.43696,-31.10764a0.73546,0.78731 0 0 0 -0.47506,-0.32389l-6.83766,-1.30723a0.80209,0.85864 0 0 0 -0.1396,-0.01352z"/>
   <path stroke="none" id="svg_49" fill="#e6e6e6" d="m35.71097,87.79676l0.51734,5.57823l8.16346,-0.86748a2.61821,2.80282 0 0 0 -0.51716,-5.57823l-8.16364,0.86748z"/>
   <path stroke="none" id="svg_50" fill="#639dea" d="m28.61234,87.15062a6.73396,7.20875 0 0 0 6.72601,7.16064l1.34234,0l0.97722,-8.71807l-8.09136,-3.1183l-0.95421,4.67573z"/>
   <polygon stroke="none" id="svg_51" fill="#fff" points="76.16390748141202,27.47251672720722 75.90806881047502,27.198641777152943 76.2945694566697,26.78493728909416 78.60361828226087,23.90014299749737 78.87822076370503,24.15193487645297 76.55982465243687,27.047579525068386 76.16390748141202,27.47251672720722 "/>
   <rect stroke="none" x="-0.33329" id="svg_52" fill="#3f3d56" height="0.77475" width="321.33326" y="238.33124"/>
   <path stroke="none" id="svg_53" fill="#e6e6e6" d="m122.33785,237.94386l75.99097,0l0,-98.67095c0,-5.22481 -4.80739,-9.47537 -10.71627,-9.47537l-54.55844,0c-5.90905,0 -10.71627,4.25056 -10.71627,9.47537l0,98.67095z"/>
   <path stroke="none" id="svg_54" fill="#fff" d="m128.12764,233.86363l64.4114,0l0,-83.6354c0,-4.42865 -4.07484,-8.0315 -9.08331,-8.0315l-46.24477,0c-5.00863,0 -9.08331,3.60285 -9.08331,8.0315l0,83.6354z"/>
   <path stroke="none" id="svg_55" fill="#3f3d56" d="m121.76379,122.1185c-1.87822,0 -3.40641,1.35123 -3.40641,3.01196l0,8.69421c0,1.66073 1.52819,3.01196 3.40641,3.01196l77.13929,0c1.87822,0 3.40624,-1.35124 3.40624,-3.01196l0,-8.6942c0,-1.66073 -1.52802,-3.01196 -3.40624,-3.01196l-77.13929,-0.00001z"/>
   <path stroke="none" id="svg_56" fill="#3f3d56" d="m137.60147,223.13938a3.33769,3.57303 0 0 0 -3.32792,3.56255l0,0a3.3377,3.57303 0 0 0 3.32792,3.56256l6.22917,0l0,-7.12511l-6.22917,0z"/>
   <path stroke="none" id="svg_57" fill="#639dea" d="m149.54785,223.13938l-6.05852,0l0,7.12514l6.05852,0a3.3377,3.57303 0 0 0 3.32792,-3.56256l0,0a3.33769,3.57303 0 0 0 -3.32792,-3.56257z"/>
   <path stroke="none" id="svg_58" opacity="0.2" d="m151.71943,224.01186a3.30876,3.54205 0 0 1 0.81501,2.32468l0,0a3.3377,3.57303 0 0 1 -3.32792,3.56256l-5.7172,0l0,0.36539l6.05852,0a3.3377,3.57303 0 0 0 3.32792,-3.56256l0,0a3.32062,3.55475 0 0 0 -1.15634,-2.69008z"/>
   <path stroke="none" id="svg_59" fill="#3f3d56" d="m165.71112,169.47772a3.33769,3.57303 0 0 0 -4.70433,-0.14869l0,0a3.3377,3.57303 0 0 0 -0.13889,5.03603l4.27279,4.85236l4.84323,-4.88735l-4.2728,-4.85235z"/>
   <path stroke="none" id="svg_60" fill="#639dea" d="m173.90551,178.78362l-4.15573,-4.71942l-4.84323,4.88737l4.15573,4.71942a3.3377,3.57304 0 0 0 4.70434,0.14869l0,0a3.33769,3.57302 0 0 0 0.13889,-5.03605z"/>
   <path stroke="none" id="svg_61" opacity="0.2" d="m174.80202,181.07368a3.30875,3.54204 0 0 1 -1.02114,2.22944l0,0a3.3377,3.57303 0 0 1 -4.70434,-0.14868l-3.92162,-4.45351l-0.24837,0.25063l4.15573,4.71942a3.3377,3.57304 0 0 0 4.70434,0.14869l0,0a3.32064,3.55477 0 0 0 1.0354,-2.74599z"/>
   <path stroke="none" id="svg_62" fill="#3f3d56" d="m147.97989,180.71162a3.33769,3.57303 0 0 0 -4.70433,-0.14869l0,0a3.3377,3.57303 0 0 0 -0.13889,5.03603l4.27279,4.85236l4.84323,-4.88735l-4.2728,-4.85235z"/>
   <path stroke="none" id="svg_63" fill="#639dea" d="m156.17429,190.01752l-4.15573,-4.71942l-4.84323,4.88737l4.15573,4.71942a3.3377,3.57304 0 0 0 4.70434,0.14869l0,0a3.33769,3.57302 0 0 0 0.13889,-5.03605z"/>
   <path stroke="none" id="svg_64" opacity="0.2" d="m157.0708,192.30758a3.30875,3.54204 0 0 1 -1.02114,2.22944l0,0a3.3377,3.57303 0 0 1 -4.70434,-0.14868l-3.92162,-4.45351l-0.24837,0.25063l4.15573,4.71942a3.3377,3.57304 0 0 0 4.70434,0.14869l0,0a3.32064,3.55477 0 0 0 1.0354,-2.74599z"/>
   <path stroke="none" id="svg_65" fill="#3f3d56" d="m165.71112,191.17076a3.33769,3.57303 0 0 0 -4.70433,-0.14869l0,0a3.3377,3.57303 0 0 0 -0.13889,5.03603l4.27279,4.85236l4.84323,-4.88735l-4.2728,-4.85235z"/>
   <path stroke="none" id="svg_66" fill="#639dea" d="m173.90551,200.47666l-4.15573,-4.71942l-4.84323,4.88737l4.15573,4.71942a3.3377,3.57304 0 0 0 4.70434,0.14869l0,0a3.33769,3.57302 0 0 0 0.13889,-5.03605z"/>
   <path stroke="none" id="svg_67" opacity="0.2" d="m174.80202,202.76673a3.30875,3.54204 0 0 1 -1.02114,2.22944l0,0a3.3377,3.57303 0 0 1 -4.70434,-0.14868l-3.92162,-4.45351l-0.24837,0.25063l4.15573,4.71942a3.3377,3.57304 0 0 0 4.70434,0.14869l0,0a3.32064,3.55477 0 0 0 1.0354,-2.74599z"/>
   <path stroke="none" id="svg_68" fill="#3f3d56" d="m176.5281,213.43209a3.33769,3.57303 0 0 0 0.08172,-5.03746l0,0a3.3377,3.57303 0 0 0 -4.70568,-0.08747l-4.48052,4.63268l4.62397,5.12494l4.48051,-4.63269z"/>
   <path stroke="none" id="svg_69" fill="#639dea" d="m167.93533,222.31669l4.35775,-4.50577l-4.62396,-5.12494l-4.35776,4.50576a3.3377,3.57304 0 0 0 -0.08171,5.03747l0,0a3.33769,3.57303 0 0 0 4.70567,0.08747z"/>
   <path stroke="none" id="svg_70" opacity="0.2" d="m165.80716,223.30415a3.30878,3.54207 0 0 1 -2.09486,-1.06596l0,0a3.3377,3.57303 0 0 1 0.08171,-5.03747l4.11224,-4.2519l-0.23712,-0.26282l-4.35776,4.50575a3.3377,3.57304 0 0 0 -0.08171,5.03747l0,0a3.32063,3.55476 0 0 0 2.5775,1.07493z"/>
   <path stroke="none" id="svg_71" fill="#3f3d56" d="m152.64523,202.19819a3.33769,3.57303 0 0 0 0.08172,-5.03746l0,0a3.3377,3.57303 0 0 0 -4.70568,-0.08747l-4.48052,4.63268l4.62397,5.12494l4.48051,-4.63269z"/>
   <path stroke="none" id="svg_72" fill="#639dea" d="m144.05246,211.0828l4.35775,-4.50577l-4.62396,-5.12494l-4.35776,4.50576a3.3377,3.57304 0 0 0 -0.08171,5.03747l0,0a3.33769,3.57303 0 0 0 4.70567,0.08747z"/>
   <path stroke="none" id="svg_73" opacity="0.2" d="m141.92429,212.07026a3.30878,3.54207 0 0 1 -2.09486,-1.06596l0,0a3.3377,3.57303 0 0 1 0.08171,-5.03747l4.11224,-4.2519l-0.23712,-0.26282l-4.35776,4.50575a3.3377,3.57304 0 0 0 -0.08171,5.03747l0,0a3.32063,3.55476 0 0 0 2.5775,1.07493z"/>
   <path stroke="none" id="svg_74" fill="#3f3d56" d="m186.66023,188.64004a3.33769,3.57303 0 0 0 0.08172,-5.03746l0,0a3.3377,3.57303 0 0 0 -4.70568,-0.08747l-4.48052,4.63268l4.62397,5.12494l4.48051,-4.63269z"/>
   <path stroke="none" id="svg_75" fill="#639dea" d="m178.06746,197.52464l4.35775,-4.50577l-4.62396,-5.12494l-4.35776,4.50576a3.3377,3.57304 0 0 0 -0.08171,5.03747l0,0a3.33769,3.57303 0 0 0 4.70567,0.08747z"/>
   <path stroke="none" id="svg_76" opacity="0.2" d="m175.93929,198.5121a3.30878,3.54207 0 0 1 -2.09486,-1.06596l0,0a3.3377,3.57303 0 0 1 0.08171,-5.03747l4.11224,-4.2519l-0.23712,-0.26282l-4.35776,4.50575a3.3377,3.57304 0 0 0 -0.08171,5.03747l0,0a3.32063,3.55476 0 0 0 2.5775,1.07493z"/>
   <path stroke="none" id="svg_77" fill="#3f3d56" d="m179.1,216.73756a3.33769,3.57303 0 0 0 -4.70433,-0.14869l0,0a3.3377,3.57303 0 0 0 -0.13889,5.03603l4.27279,4.85236l4.84323,-4.88735l-4.2728,-4.85235z"/>
   <path stroke="none" id="svg_78" fill="#639dea" d="m187.2944,226.04347l-4.15573,-4.71942l-4.84323,4.88737l4.15573,4.71942a3.3377,3.57304 0 0 0 4.70434,0.14869l0,0a3.33769,3.57302 0 0 0 0.13889,-5.03605z"/>
   <path stroke="none" id="svg_79" opacity="0.2" d="m188.19091,228.33353a3.30875,3.54204 0 0 1 -1.02114,2.22944l0,0a3.3377,3.57303 0 0 1 -4.70434,-0.14868l-3.92162,-4.45351l-0.24837,0.25063l4.15573,4.71942a3.3377,3.57304 0 0 0 4.70434,0.14869l0,0a3.32064,3.55477 0 0 0 1.0354,-2.74599z"/>
   <path stroke="none" id="svg_80" fill="#3f3d56" d="m155.57899,216.35019a3.33769,3.57303 0 0 0 -4.70433,-0.14869l0,0a3.3377,3.57303 0 0 0 -0.13889,5.03603l4.27279,4.85236l4.84323,-4.88735l-4.2728,-4.85235z"/>
   <path stroke="none" id="svg_81" fill="#639dea" d="m163.77338,225.65609l-4.15573,-4.71942l-4.84323,4.88737l4.15573,4.71942a3.3377,3.57304 0 0 0 4.70434,0.14869l0,0a3.33769,3.57302 0 0 0 0.13889,-5.03605z"/>
   <path stroke="none" id="svg_82" opacity="0.2" d="m164.66989,227.94615a3.30875,3.54204 0 0 1 -1.02114,2.22944l0,0a3.3377,3.57303 0 0 1 -4.70434,-0.14868l-3.92162,-4.45351l-0.24837,0.25063l4.15573,4.71942a3.3377,3.57304 0 0 0 4.70434,0.14869l0,0a3.32064,3.55477 0 0 0 1.0354,-2.74599z"/>
   <path stroke="none" id="svg_83" fill="#639dea" d="m162.19979,203.56936a4.79941,5.13781 0 0 1 -3.83954,5.03504a4.84712,5.18888 0 0 1 -1.91977,0a4.80063,5.13911 0 0 1 0,-10.07014a4.84783,5.18964 0 0 1 1.91977,0a4.79944,5.13784 0 0 1 3.83954,5.0351z"/>
   <path stroke="none" id="svg_84" opacity="0.2" d="m158.36024,198.53429l0,10.07012a4.84712,5.18888 0 0 1 -1.91977,0l0,-10.07012a4.84783,5.18964 0 0 1 1.91977,0z"/>
   <path stroke="none" id="svg_85" fill="#639dea" d="m164.37096,183.03845a4.79941,5.13781 0 0 1 -3.83954,5.03504a4.84712,5.18888 0 0 1 -1.91977,0a4.80063,5.13911 0 0 1 0,-10.07014a4.84783,5.18964 0 0 1 1.91977,0a4.79944,5.13784 0 0 1 3.83954,5.0351z"/>
   <path stroke="none" id="svg_86" opacity="0.2" d="m160.53141,178.00337l0,10.07012a4.84712,5.18888 0 0 1 -1.91977,0l0,-10.07012a4.84783,5.18964 0 0 1 1.91977,0z"/>
   <path stroke="none" id="svg_87" fill="#639dea" d="m164.37096,212.47901a4.79941,5.13781 0 0 1 -3.83954,5.03504a4.84712,5.18888 0 0 1 -1.91977,0a4.80063,5.13911 0 0 1 0,-10.07014a4.84783,5.18964 0 0 1 1.91977,0a4.79944,5.13784 0 0 1 3.83954,5.0351z"/>
   <path stroke="none" id="svg_88" opacity="0.2" d="m160.53141,207.44393l0,10.07012a4.84712,5.18888 0 0 1 -1.91977,0l0,-10.07012a4.84783,5.18964 0 0 1 1.91977,0z"/>
   <path stroke="none" id="svg_89" fill="#639dea" d="m176.31239,226.81191a4.79941,5.13781 0 0 1 -3.83954,5.03504a4.84712,5.18888 0 0 1 -1.91977,0a4.80063,5.13911 0 0 1 0,-10.07014a4.84783,5.18964 0 0 1 1.91977,0a4.79944,5.13784 0 0 1 3.83954,5.0351z"/>
   <path stroke="none" id="svg_90" opacity="0.2" d="m172.47285,221.77683l0,10.07012a4.84712,5.18888 0 0 1 -1.91977,0l0,-10.07012a4.84783,5.18964 0 0 1 1.91977,0z"/>
   <path stroke="none" id="svg_91" fill="#639dea" d="m186.86127,200.441a4.79941,5.13781 0 0 1 0.72191,6.45359a4.8471,5.18886 0 0 1 -1.33227,1.47969a4.80064,5.13912 0 0 1 -6.77297,-6.98842a4.84786,5.18967 0 0 1 1.33227,-1.47969a4.79944,5.13783 0 0 1 6.05105,0.53483z"/>
   <path stroke="none" id="svg_92" opacity="0.2" d="m180.81024,199.90617l6.77297,6.98842a4.8471,5.18886 0 0 1 -1.33227,1.47969l-6.77297,-6.98842a4.84786,5.18967 0 0 1 1.33227,-1.47969l0,0z"/>
   <path stroke="none" id="svg_93" fill="#639dea" d="m188.30871,211.6749a4.79941,5.13781 0 0 1 0.72191,6.45359a4.8471,5.18886 0 0 1 -1.33227,1.47969a4.80064,5.13912 0 0 1 -6.77297,-6.98842a4.84786,5.18967 0 0 1 1.33227,-1.47969a4.79944,5.13783 0 0 1 6.05105,0.53483z"/>
   <path stroke="none" id="svg_94" opacity="0.2" d="m182.25769,211.14007l6.77297,6.98842a4.8471,5.18886 0 0 1 -1.33227,1.47969l-6.77297,-6.98842a4.84786,5.18967 0 0 1 1.33227,-1.47969l0,0z"/>
   <path stroke="none" id="svg_95" fill="#639dea" d="m145.24716,214.38653a4.79941,5.13781 0 0 1 0.72191,6.45359a4.8471,5.18886 0 0 1 -1.33227,1.47969a4.80064,5.13912 0 0 1 -6.77297,-6.98842a4.84786,5.18967 0 0 1 1.33227,-1.47969a4.79944,5.13783 0 0 1 6.05105,0.53483z"/>
   <path stroke="none" id="svg_96" opacity="0.2" d="m139.19613,213.8517l6.77297,6.98842a4.8471,5.18886 0 0 1 -1.33227,1.47969l-6.77297,-6.98842a4.84786,5.18967 0 0 1 1.33227,-1.47969l0,0z"/>
   <rect stroke="none" id="svg_97" opacity="0.2" height="14.3329" width="1.80931" y="122.11851" x="127.94671"/>
   <rect stroke="none" id="svg_98" opacity="0.2" height="14.3329" width="1.80931" y="122.11851" x="138.4407"/>
   <rect stroke="none" id="svg_99" opacity="0.2" height="14.3329" width="1.80931" y="122.11851" x="148.9347"/>
   <rect stroke="none" id="svg_100" opacity="0.2" height="14.3329" width="1.80931" y="122.11851" x="159.42869"/>
   <rect stroke="none" id="svg_101" opacity="0.2" height="14.3329" width="1.80931" y="122.11851" x="169.92268"/>
   <rect stroke="none" id="svg_102" opacity="0.2" height="14.3329" width="1.80931" y="122.11851" x="180.41667"/>
   <rect stroke="none" id="svg_103" opacity="0.2" height="14.3329" width="1.80931" y="122.11851" x="190.91066"/>
  </g>
 </g>

</svg>